<svg width="22" height="22" viewBox="0 0 22 22" fill="none" xmlns="http://www.w3.org/2000/svg">
    <path d="M21 10.376L11.5445 19.2938C10.3861 20.3862 8.81499 21 7.1768 21C5.53861 21 3.96752 20.3862 2.80914 19.2938C1.65077 18.2013 1 16.7195 1 15.1745C1 13.6295 1.65077 12.1477 2.80914 11.0553L12.2647 2.1375C13.0369 1.40917 14.0843 1 15.1765 1C16.2686 1 17.316 1.40917 18.0882 2.1375C18.8605 2.86583 19.2943 3.85365 19.2943 4.88366C19.2943 5.91367 18.8605 6.9015 18.0882 7.62983L8.6224 16.5476C8.23627 16.9118 7.71257 17.1163 7.16651 17.1163C6.62045 17.1163 6.09675 16.9118 5.71063 16.5476C5.3245 16.1834 5.10758 15.6895 5.10758 15.1745C5.10758 14.6595 5.3245 14.1656 5.71063 13.8014L14.4459 5.57263"
          stroke="#00B1E9" stroke-width="2" stroke-linecap="round" stroke-linejoin="round"/>
</svg>
