<svg width="20" height="20" viewBox="0 0 20 20" fill="none" xmlns="http://www.w3.org/2000/svg">
    <circle cx="10" cy="10" r="10" fill="#9CA8AF"/>
    <path d="M10 3C6.1402 3 3 6.1402 3 10C3 13.8598 6.1402 17 10 17C13.8598 17 17 13.8598 17 10C17 6.1402 13.8598 3 10 3ZM10 15.5105C6.96153 15.5105 4.48934 13.0386 4.48934 10C4.48934 6.96138 6.96153 4.48948 10 4.48948C13.0385 4.48948 15.5107 6.96138 15.5107 10C15.5107 13.0386 13.0385 15.5105 10 15.5105Z"
          fill="white"/>
    <path d="M14.3302 6.50594L6.50669 14.3294L5.67066 13.4934L13.4941 5.66992L14.3302 6.50594Z" fill="white"
          stroke="white" stroke-width="0.3"/>
</svg>
