<svg width="20" height="20" viewBox="0 0 20 20" fill="none" xmlns="http://www.w3.org/2000/svg">
    <path d="M10 0C4.47768 0 0 4.47768 0 10C0 15.5223 4.47768 20 10 20C15.5223 20 20 15.5223 20 10C20 4.47768 15.5223 0 10 0Z"
          fill="#F2C94C"/>
    <path d="M9 4.95833C9 4.42906 9.42906 4 9.95833 4C10.4876 4 10.9167 4.42906 10.9167 4.95833V10.7083C10.9167 11.2376 10.4876 11.6667 9.95833 11.6667C9.42906 11.6667 9 11.2376 9 10.7083V4.95833Z"
          fill="white"/>
    <path d="M9 14.5417C9 15.0709 9.42906 15.5 9.95833 15.5C10.4876 15.5 10.9167 15.0709 10.9167 14.5417C10.9167 14.0124 10.4876 13.5833 9.95833 13.5833C9.42906 13.5833 9 14.0124 9 14.5417Z"
          fill="white"/>
</svg>
