<svg width="24" height="24" viewBox="0 0 24 24" fill="none" xmlns="http://www.w3.org/2000/svg">
    <path d="M15 6L18.5 9.5" stroke="#2F88F0" stroke-width="2"/>
    <path d="M6 15L9.5 18.5" stroke="#2F88F0" stroke-width="2"/>
    <path d="M18.2316 3.39659L17.5269 4.10179C17.3911 3.96602 17.1677 3.96604 17.0318 4.10203L17.0317 4.10207L5.69506 15.4445L5.6946 15.445C5.41148 15.7279 5.19352 16.0793 5.06598 16.4584L4.33041 19.6703L7.5455 18.9358C7.92495 18.8084 8.27678 18.5907 8.56036 18.3075C8.56041 18.3074 8.56047 18.3074 8.56053 18.3073L19.8978 6.96438C19.8978 6.96434 19.8978 6.96431 19.8978 6.96428C19.9651 6.89693 20 6.81248 20 6.71742L18.2316 3.39659ZM18.2316 3.39659L17.5269 4.10179L19.8975 6.47036L20.6043 5.76296M18.2316 3.39659L20.6043 5.76296M20.6043 5.76296L19.8975 6.47037C19.9649 6.53771 19.9999 6.62221 20 6.71731L20.6043 5.76296Z"
          stroke="#2F88F0" stroke-width="2"/>
</svg>
