<svg width="24" height="24" viewBox="0 0 24 24" fill="none" xmlns="http://www.w3.org/2000/svg">
    <path d="M6.08638 7.07975C6.03983 6.49788 6.49947 6 7.08319 6H16.9168C17.5005 6 17.9602 6.49788 17.9136 7.07975L16.8736 20.0797C16.832 20.5994 16.3982 21 15.8768 21H8.12319C7.60183 21 7.16796 20.5994 7.12638 20.0797L6.08638 7.07975Z"
          stroke="#FF3055" stroke-width="2" stroke-linecap="round" stroke-linejoin="round"/>
    <path d="M5.5 2C4.94772 2 4.5 2.44772 4.5 3C4.5 3.55228 4.94772 4 5.5 4L5.5 2ZM18.5 4C19.0523 4 19.5 3.55228 19.5 3C19.5 2.44772 19.0523 2 18.5 2V4ZM11.5 3V4H13.118L12.3944 2.55279L11.5 3ZM11 2V1C10.6534 1 10.3316 1.17945 10.1493 1.47427C9.96714 1.76909 9.95058 2.13723 10.1056 2.44721L11 2ZM12.5 3L11.6056 2.55279L10.882 4L12.5 4V3ZM13 2L13.8944 2.44721C14.0494 2.13723 14.0329 1.76909 13.8507 1.47427C13.6684 1.17945 13.3466 1 13 1V2ZM5.5 4L11.5 4V2L5.5 2L5.5 4ZM12.3944 2.55279L11.8944 1.55279L10.1056 2.44721L10.6056 3.44721L12.3944 2.55279ZM12.5 4L18.5 4V2L12.5 2V4ZM11 3L13 3V1L11 1V3ZM12.1056 1.55279L11.6056 2.55279L13.3944 3.44721L13.8944 2.44721L12.1056 1.55279Z"
          fill="#FF3055"/>
    <path d="M10 10V17" stroke="#FF3055" stroke-width="2" stroke-linecap="round"/>
    <path d="M14 10V17" stroke="#FF3055" stroke-width="2" stroke-linecap="round"/>
</svg>
