<svg width="21" height="21" viewBox="0 0 21 21" fill="none" xmlns="http://www.w3.org/2000/svg">
    <path d="M10.0566 0.0284068C4.54246 0.0127428 0.0438978 4.48582 0.0282338 9.99996C0.0125698 15.5141 4.48564 20.0127 9.99979 20.0283C15.5139 20.044 20.0125 15.5709 20.0282 10.0568C20.0438 4.54263 15.5707 0.0440708 10.0566 0.0284068Z"
          fill="#00BF41"/>
    <path d="M12.5843 7.28867L9.13435 11.1478L7.3584 9.4736C7.04725 9.17984 6.54008 9.1784 6.22727 9.47038C5.91406 9.76237 5.91271 10.2371 6.22426 10.5309L8.61772 12.7877C8.76811 12.9291 8.97147 13.0085 9.18306 13.0091C9.19506 13.0091 9.20746 13.0091 9.21946 13.0084C9.44387 12.9997 9.65414 12.9024 9.79859 12.7408L13.8111 8.25217C14.0948 7.93459 14.0502 7.46196 13.7117 7.1955C13.3729 6.92978 12.868 6.9711 12.5843 7.28867Z"
          fill="white"/>
</svg>
