<svg width="52" height="52" viewBox="0 0 52 52" fill="none" xmlns="http://www.w3.org/2000/svg">
    <path fill-rule="evenodd" clip-rule="evenodd"
          d="M1.01463 45.3318C0.679025 45.4371 0.340873 45.546 0 45.6586L-1.6159e-06 8.69112C8.78378 5.55828 16.8649 5.55828 26 8.69112C34.7838 5.55828 42.8649 5.55828 52 8.69111L52 45.6586C51.6594 45.5301 51.3213 45.4068 50.9854 45.2887C42.6355 42.3535 35.6708 42.6173 27.0146 45.3318C26.679 45.4371 26.3409 45.546 26 45.6586C25.6594 45.5301 25.3213 45.4068 24.9854 45.2887C16.6355 42.3535 9.67078 42.6173 1.01463 45.3318ZM25.3659 44.5009C17.0216 41.6407 9.5896 41.6409 1.01463 44.2847L1.01463 9.39704C9.09486 6.65387 16.9544 6.64308 25.3659 9.39704L25.3659 44.5009ZM50.9854 44.2299C42.6411 41.3698 35.2091 41.8572 26.6341 44.5009L26.6341 9.39704C34.7144 6.65387 42.574 6.65188 50.9854 9.40584L50.9854 44.2299Z"
          fill="#A3AAAE"/>
    <path fill-rule="evenodd" clip-rule="evenodd"
          d="M34.2439 40.3538C34.5926 40.3068 34.9306 40.2638 35.2585 40.2248C41.1672 39.5207 43.844 40.077 47.8146 41.0424C48.0035 41.0883 48.1952 41.1351 48.3904 41.1828C48.5347 41.2181 48.681 41.2538 48.8293 41.2899L48.8293 30.0565L48.726 30.026C44.2124 28.6953 41.334 27.8467 34.2439 29.1203L34.2439 40.3538ZM35.2585 39.2191C38.2835 38.8647 40.5098 38.834 42.5176 39.0283C44.3509 39.2057 45.9803 39.5699 47.8146 40.0139L47.8146 30.8001C45.8531 30.2254 44.244 29.7862 42.3944 29.5947C40.5023 29.3987 38.3207 29.4599 35.2585 29.9598L35.2585 39.2191Z"
          fill="#A3AAAE"/>
    <path d="M4.43901 38.6829L4.43901 12.6829L5.7073 12.6829L5.7073 38.6829L4.43901 38.6829Z" fill="#A3AAAE"/>
    <path d="M31.7073 26L31.7073 10.7805L32.9756 10.7805L32.9756 26L31.7073 26Z" fill="#A3AAAE"/>
    <path d="M37.4146 24.4399L37.4146 11.9583L38.4293 11.9583L38.4293 24.4399L37.4146 24.4399Z" fill="#A3AAAE"/>
    <path d="M40.5854 23.8157L40.5854 11.3341L41.6 11.3341L41.6 23.8157L40.5854 23.8157Z" fill="#A3AAAE"/>
    <path d="M43.7561 24.4399L43.7561 15.7028L44.7707 15.7028L44.7707 24.4399L43.7561 24.4399Z" fill="#A3AAAE"/>
    <path d="M7.60973 34.4252L7.60973 16.9509L8.62436 16.9509L8.62436 34.4252L7.60973 34.4252Z" fill="#A3AAAE"/>
    <path fill-rule="evenodd" clip-rule="evenodd"
          d="M19.2781 25.3758C19.2781 23.687 17.8869 22.3179 16.1708 22.3179C14.4546 22.3179 13.0634 23.687 13.0634 25.3758C13.0634 27.0647 14.4546 28.4338 16.1708 28.4338C17.8869 28.4338 19.2781 27.0647 19.2781 25.3758ZM20.2927 25.3758C20.2927 23.1355 18.4473 21.3193 16.1708 21.3193C13.8943 21.3193 12.0488 23.1355 12.0488 25.3758C12.0488 27.6162 13.8943 29.4324 16.1708 29.4324C18.4473 29.4324 20.2927 27.6162 20.2927 25.3758Z"
          fill="#A3AAAE"/>
    <path d="M41.5366 32.5529C42.7624 32.5529 43.7561 33.5308 43.7561 34.7372C43.7561 35.9435 42.7624 36.9215 41.5366 36.9215C40.3108 36.9215 39.3171 35.9435 39.3171 34.7372C39.3171 33.5308 40.3108 32.5529 41.5366 32.5529Z"
          fill="#A3AAAE"/>
    <path d="M48.1951 30.0566C46.8496 30.0566 45.5593 30.5826 44.6079 31.5189C43.6564 32.4552 43.122 33.7251 43.122 35.0492C43.122 36.3734 43.6564 37.6433 44.6079 38.5796C45.5593 39.5159 46.8496 40.0419 48.1951 40.0419L48.1951 30.0566Z"
          fill="#A3AAAE"/>
</svg>
