<svg width="52" height="52" viewBox="0 0 52 52" fill="none" xmlns="http://www.w3.org/2000/svg">
    <path fill-rule="evenodd" clip-rule="evenodd"
          d="M1.01464 45.3265C0.679027 45.4334 0.340875 45.5441 1.64196e-06 45.6585L0 8.0948C8.78378 4.91143 16.8649 4.91143 26 8.0948C34.7838 4.91143 42.8649 4.91143 52 8.0948V45.6585C51.6594 45.5279 51.3213 45.4027 50.9854 45.2827C42.6355 42.3002 35.6708 42.5682 27.0146 45.3265C26.679 45.4334 26.3409 45.5441 26 45.6585C25.6594 45.5279 25.3213 45.4027 24.9854 45.2827C16.6355 42.3002 9.67078 42.5682 1.01464 45.3265ZM25.5014 44.3902C17.1571 41.4839 9.58961 41.5761 1.01464 44.2624L1.01463 8.81211C9.09486 6.0247 17.09 6.02268 25.5014 8.82105V44.3902ZM50.9854 44.2068C42.6411 41.3005 35.0942 41.7038 26.5193 44.3902V8.82105C34.5995 6.03364 42.574 6.02268 50.9854 8.82105V44.2068Z"
          fill="#A3AAAE"/>
    <path fill-rule="evenodd" clip-rule="evenodd"
          d="M29.4877 20.6097C29.8229 20.5407 30.1613 20.4749 30.5023 20.4122C36.2246 19.3609 42.7023 19.2144 47.8145 20.3603C48.1591 20.4375 48.4976 20.5206 48.8291 20.6097L48.8291 10.7842C43.2935 8.80158 35.5742 8.80479 29.4877 10.7842L29.4877 20.6097ZM30.5023 19.381C36.1912 18.3575 42.6253 18.203 47.8145 19.3214L47.8145 11.5123C42.7778 9.91067 36.0293 9.90932 30.5023 11.5324L30.5023 19.381Z"
          fill="#A3AAAE"/>
    <path fill-rule="evenodd" clip-rule="evenodd"
          d="M3.48767 20.6097C3.8229 20.5407 4.16126 20.4749 4.5023 20.4122C10.2246 19.3609 16.7023 19.2144 21.8145 20.3603C22.1591 20.4375 22.4976 20.5206 22.8291 20.6097L22.8291 10.7842C17.2935 8.80158 9.57424 8.80479 3.48767 10.7842L3.48767 20.6097ZM4.5023 19.381C10.1912 18.3575 16.6253 18.203 21.8145 19.3214L21.8145 11.5123C16.7778 9.91067 10.0293 9.90932 4.5023 11.5324L4.5023 19.381Z"
          fill="#A3AAAE"/>
    <path fill-rule="evenodd" clip-rule="evenodd"
          d="M29.4877 35.0918C29.8588 35.0154 30.2338 34.9428 30.612 34.8742C36.2663 33.8486 42.6426 33.7058 47.7048 34.818C48.0874 34.902 48.4625 34.9932 48.8291 35.0918L48.8291 25.2662C43.2935 23.2836 35.5742 23.2868 29.4877 25.2662L29.4877 35.0918ZM30.612 33.732C36.2304 32.7362 42.5606 32.585 47.7048 33.668L47.7048 26.0747C42.723 24.512 36.0771 24.5104 30.612 26.0967L30.612 33.732Z"
          fill="#A3AAAE"/>
    <path d="M6.65854 11.7317H19.3415V12.7463H6.65854V11.7317Z" fill="#A3AAAE"/>
    <path d="M32.6585 11.7317H45.3415V12.7463H32.6585V11.7317Z" fill="#A3AAAE"/>
    <path d="M32.6585 26.3171H45.3415V27.3318H32.6585V26.3171Z" fill="#A3AAAE"/>
    <path d="M6.65854 15.5365H19.3415V16.5511H6.65854V15.5365Z" fill="#A3AAAE"/>
    <path d="M32.6585 15.5365H45.3415V16.5511H32.6585V15.5365Z" fill="#A3AAAE"/>
    <path d="M32.6585 30.1219H45.3415V31.1366H32.6585V30.1219Z" fill="#A3AAAE"/>
    <path d="M8.56107 13.6342H16.805V14.6488H8.56107V13.6342Z" fill="#A3AAAE"/>
    <path d="M34.5611 13.6342H42.805V14.6488H34.5611V13.6342Z" fill="#A3AAAE"/>
    <path d="M34.5611 28.2195H42.805V29.2341H34.5611V28.2195Z" fill="#A3AAAE"/>
</svg>
