<svg width="24" height="24" viewBox="0 0 24 24" fill="none" xmlns="http://www.w3.org/2000/svg">
    <path d="M2 17V19C2 20.1046 2.89543 21 4 21H20C21.1046 21 22 20.1046 22 19V17" stroke="#a3aaae" stroke-width="2"
          stroke-linecap="round"/>
    <path d="M13 3C13 2.44772 12.5523 2 12 2C11.4477 2 11 2.44772 11 3H13ZM11.2929 15.7071C11.6834 16.0976 12.3166 16.0976 12.7071 15.7071L19.0711 9.34315C19.4616 8.95262 19.4616 8.31946 19.0711 7.92893C18.6805 7.53841 18.0474 7.53841 17.6569 7.92893L12 13.5858L6.34315 7.92893C5.95262 7.53841 5.31946 7.53841 4.92893 7.92893C4.53841 8.31946 4.53841 8.95262 4.92893 9.34315L11.2929 15.7071ZM11 3V15H13V3H11Z"
          fill="#a3aaae"/>
</svg>
