<svg width="20" height="20" viewBox="0 0 20 20" fill="none" xmlns="http://www.w3.org/2000/svg">
    <circle cx="10" cy="10" r="10" fill="#E7EAEC"/>
    <path d="M10 3C6.1402 3 3 6.1402 3 10C3 13.8598 6.1402 17 10 17C13.8598 17 17 13.8598 17 10C17 6.1402 13.8598 3 10 3ZM10 15.5105C6.96153 15.5105 4.48934 13.0386 4.48934 10C4.48934 6.96138 6.96153 4.48948 10 4.48948C13.0385 4.48948 15.5107 6.96138 15.5107 10C15.5107 13.0386 13.0385 15.5105 10 15.5105Z"
          fill="white"/>
    <path d="M13.4088 9.95425H10.1823V6.52288C10.1823 6.23412 9.91762 6 9.59116 6C9.26469 6 9 6.23412 9 6.52288V10.4771C9 10.7659 9.26469 11 9.59116 11H13.4088C13.7353 11 14 10.7659 14 10.4771C14 10.1884 13.7353 9.95425 13.4088 9.95425Z"
          fill="white" stroke="white" stroke-width="0.3"/>
</svg>
