<svg width="20" height="20" viewBox="0 0 20 20" fill="none" xmlns="http://www.w3.org/2000/svg">
    <path d="M10.0283 0.0283264C4.5298 0.0127068 0.0439644 4.47313 0.0283447 9.97167C0.012725 15.4702 4.47315 19.9561 9.97169 19.9717C15.4702 19.9873 19.9561 15.5269 19.9717 10.0283C19.9873 4.52978 15.5269 0.0439461 10.0283 0.0283264Z"
          fill="#00BF41"/>
    <path d="M13.109 6.98264L9.52446 11.2591L7.67997 9.40447C7.35682 9.07906 6.82998 9.07756 6.50498 9.40114C6.17956 9.72471 6.17807 10.2507 6.50164 10.5761L8.98748 13.0761C9.14367 13.2328 9.35491 13.3206 9.5747 13.3213C9.58716 13.3213 9.60004 13.3213 9.61251 13.3205C9.84563 13.3108 10.0641 13.203 10.2141 13.0239L14.3832 8.04991C14.6779 7.69799 14.6316 7.17435 14.2801 6.87918C13.9282 6.58485 13.4037 6.63072 13.109 6.98264Z"
          fill="white"/>
</svg>
